mtllib model_113.mtl
o model_113
v 0.3503151535987854 -1.0001599788665771 -0.350472629070282 
v 0.0038582799024879932 -1.0001599788665771 -0.5000789761543274 
v 0.3503151535987854 0.9998360276222229 -0.350472629070282 
v 0.0038582799024879932 0.9998360276222229 -0.5000789761543274 
v 0.3975592851638794 0.007712000049650669 0.0038582799024879932 
v 0.2794489860534668 0.007712000049650669 0.2794489860534668 
v 0.3975592851638794 0.9998360276222229 0.0038582799024879932 
v 0.2794489860534668 0.9998360276222229 0.2794489860534668 
v 0.4999215304851532 0.9998360276222229 0.0038582799024879932 
v 0.3503151535987854 0.9998360276222229 0.3503151535987854 
v 0.3503151535987854 -1.0001599788665771 0.3503151535987854 
v 0.0038582799024879932 -1.0001599788665771 0.4999215304851532 
v 0.0038582799024879932 -1.0001599788665771 0.3975592851638794 
v -0.279606431722641 -1.0001599788665771 0.2794489860534668 
v 0.0038582799024879932 0.007712000049650669 0.3975592851638794 
v -0.279606431722641 0.007712000049650669 0.2794489860534668 
v 0.2794489860534668 0.007712000049650669 0.2794489860534668 
v 0.2794489860534668 -1.0001599788665771 0.2794489860534668 
v 0.4999215304851532 -1.0001599788665771 0.0038582799024879932 
v 0.3975592851638794 -1.0001599788665771 0.0038582799024879932 
v 0.3975592851638794 0.007712000049650669 0.0038582799024879932 
v 0.3975592851638794 0.007712000049650669 0.0038582799024879932 
v 0.2794489860534668 0.007712000049650669 -0.279606431722641 
v 0.3975592851638794 -1.0001599788665771 0.0038582799024879932 
v 0.2794489860534668 -1.0001599788665771 -0.279606431722641 
v 0.4999215304851532 -1.0001599788665771 0.0038582799024879932 
v 0.3503151535987854 -1.0001599788665771 -0.350472629070282 
v 0.3503151535987854 0.9998360276222229 -0.350472629070282 
v 0.0038582799024879932 -1.0001599788665771 -0.3977167308330536 
v 0.0038582799024879932 0.007712000049650669 -0.3977167308330536 
v -0.279606431722641 0.007712000049650669 -0.279606431722641 
v -0.279606431722641 -1.0001599788665771 -0.279606431722641 
v -0.350472629070282 -1.0001599788665771 -0.350472629070282 
v -0.3977167308330536 -1.0001599788665771 0.0038582799024879932 
v -0.5000789761543274 -1.0001599788665771 0.0038582799024879932 
v -0.350472629070282 -1.0001599788665771 0.3503151535987854 
v 0.0038582799024879932 0.9998360276222229 0.4999215304851532 
v -0.5000789761543274 0.9998360276222229 0.0038582799024879932 
v -0.350472629070282 0.9998360276222229 0.3503151535987854 
v -0.279606431722641 0.9998360276222229 0.2794489860534668 
v 0.0038582799024879932 0.9998360276222229 0.3975592851638794 
v 0.0038582799024879932 0.007712000049650669 0.3975592851638794 
v -0.279606431722641 0.007712000049650669 0.2794489860534668 
v -0.3977167308330536 0.9998360276222229 0.0038582799024879932 
v -0.279606431722641 0.9998360276222229 -0.279606431722641 
v -0.350472629070282 0.9998360276222229 -0.350472629070282 
v 0.0038582799024879932 0.9998360276222229 -0.5000789761543274 
v 0.0038582799024879932 -1.0001599788665771 -0.5000789761543274 
v -0.3977167308330536 0.007712000049650669 0.0038582799024879932 
v -0.279606431722641 0.007712000049650669 -0.279606431722641 
v 0.0038582799024879932 0.007712000049650669 -0.3977167308330536 
v 0.0038582799024879932 0.9998360276222229 -0.3977167308330536 
v 0.2794489860534668 0.007712000049650669 -0.279606431722641 
v 0.2794489860534668 0.9998360276222229 -0.279606431722641 
v 0.3975592851638794 0.007712000049650669 0.0038582799024879932 
v 0.3975592851638794 0.9998360276222229 0.0038582799024879932 
v 0.4999215304851532 0.9998360276222229 0.0038582799024879932 
v -0.3977167308330536 0.007712000049650669 0.0038582799024879932 
vn 0.3831879794597626 0 -0.9236704111099243 
vn 0.3831879794597626 0 -0.9236704111099243 
vn 0.3831879794597626 0 -0.9236704111099243 
vn 0.3831879794597626 0 -0.9236704111099243 
vn -0.999997615814209 -2.0682260971124217e-13 0.002184694167226553 
vn -0.7078686952590942 0.0037756471429020166 -0.7063339352607727 
vn -0.5926607847213745 0.8054491877555847 0.002184694167226553 
vn -0.4226478934288025 0.8024771809577942 -0.42118772864341736 
vn 0.777777373790741 0.6285360455513 0.002184694167226553 
vn 0.5509674549102783 0.6269466876983643 0.5507928133010864 
vn 0.5509674549102783 -0.6269466876983643 0.5507928133010864 
vn 0.0018851198256015778 -0.6300530433654785 0.7765498161315918 
vn 0.0018892475636675954 -0.80462646484375 -0.5937783122062683 
vn 0.41930508613586426 -0.8042289018630981 -0.42118772864341736 
vn 2.0682311115474694e-13 4.2775797696334704e-26 -1 
vn 0.7078787684440613 0 -0.7063339352607727 
vn -0.7078686952590942 0.0037756471429020166 -0.7063339352607727 
vn -0.4226478934288025 -0.8024771809577942 -0.42118772864341736 
vn 0.777777373790741 -0.6285360455513 0.002184694167226553 
vn -0.5926607847213745 -0.8054491877555847 0.002184694167226553 
vn -0.999997615814209 -2.0682260971124217e-13 0.002184694167226553 
vn -0.999997615814209 -2.0682260971124217e-13 0.002184694167226553 
vn -0.7078787684440613 -1.4640568759497624e-13 0.7063339352607727 
vn -0.5926607847213745 -0.8054491877555847 0.002184694167226553 
vn -0.4226478934288025 -0.8024771809577942 0.42118772864341736 
vn 0.777777373790741 -0.6285360455513 0.002184694167226553 
vn 0.5501993298530579 -0.6276208758354187 -0.5507928133010864 
vn 0.5501993298530579 0.6276208758354187 -0.5507928133010864 
vn 0.003772845258936286 -0.8046198487281799 0.5937783122062683 
vn 0 0 1 
vn 0.7078787684440613 0 0.7063339352607727 
vn 0.41930508613586426 -0.8042289018630981 0.42118772864341736 
vn -0.5501993298530579 -0.6276208758354187 -0.5507928133010864 
vn 0.5926607847213745 -0.8054491877555847 0.002184694167226553 
vn -0.777777373790741 -0.6285360455513 0.002184694167226553 
vn -0.5481278896331787 -0.6294307708740234 0.5507928133010864 
vn 0.0018851198256015778 0.6300530433654785 0.7765498161315918 
vn -0.777777373790741 0.6285360455513 0.002184694167226553 
vn -0.5481278896331787 0.6294307708740234 0.5507928133010864 
vn 0.41930508613586426 0.8042289018630981 -0.42118772864341736 
vn 0.0018892475636675954 0.80462646484375 -0.5937783122062683 
vn -2.0682311115474694e-13 0 -1 
vn 0.7078787684440613 0 -0.7063339352607727 
vn 0.5926607847213745 0.8054491877555847 0.002184694167226553 
vn 0.41930508613586426 0.8042289018630981 0.42118772864341736 
vn -0.5501993298530579 0.6276208758354187 -0.5507928133010864 
vn -6.515505501661703e-14 0.630055844783783 -0.7765498161315918 
vn 1.957449637492517e-13 -0.630055844783783 -0.7765498161315918 
vn 0.999997615814209 0 0.002184694167226553 
vn 0.7078787684440613 0 0.7063339352607727 
vn 0 0 1 
vn 0.003772845258936286 0.8046198487281799 0.5937783122062683 
vn -0.7078787684440613 -1.4640568759497624e-13 0.7063339352607727 
vn -0.4226478934288025 0.8024771809577942 0.42118772864341736 
vn -0.999997615814209 -2.0682260971124217e-13 0.002184694167226553 
vn -0.5926607847213745 0.8054491877555847 0.002184694167226553 
vn 0.777777373790741 0.6285360455513 0.002184694167226553 
vn 0.999997615814209 0 0.002184694167226553 
vt 0.479231059551239 0.4710020124912262 
vt 0.4861721098423004 0.4710020124912262 
vt 0.479231059551239 0.5264220237731934 
vt 0.4861721098423004 0.5264220237731934 
vt 0.5277100205421448 0.498657763004303 
vt 0.520768940448761 0.498657763004303 
vt 0.5277100205421448 0.5264220237731934 
vt 0.520768940448761 0.5264220237731934 
vt 0.5277100205421448 0.5264220237731934 
vt 0.520768940448761 0.5264220237731934 
vt 0.520768940448761 0.4710020124912262 
vt 0.5138278603553772 0.4710020124912262 
vt 0.5138278603553772 0.4710020124912262 
vt 0.5068868398666382 0.4710020124912262 
vt 0.5138278603553772 0.498657763004303 
vt 0.5068868398666382 0.498657763004303 
vt 0.520768940448761 0.498657763004303 
vt 0.520768940448761 0.4710020124912262 
vt 0.5277100205421448 0.4710020124912262 
vt 0.5277100205421448 0.4710020124912262 
vt 0.5277100205421448 0.498657763004303 
vt 0.4722900092601776 0.498657763004303 
vt 0.479231059551239 0.498657763004303 
vt 0.4722900092601776 0.4710020124912262 
vt 0.479231059551239 0.4710020124912262 
vt 0.4722900092601776 0.4710020124912262 
vt 0.479231059551239 0.4710020124912262 
vt 0.479231059551239 0.5264220237731934 
vt 0.4861721098423004 0.4710020124912262 
vt 0.4861721098423004 0.498657763004303 
vt 0.4931131601333618 0.498657763004303 
vt 0.4931131601333618 0.4710020124912262 
vt 0.4931131601333618 0.4710020124912262 
vt 0.4999457597732544 0.4710020124912262 
vt 0.4999457597732544 0.4710020124912262 
vt 0.5068868398666382 0.4710020124912262 
vt 0.5138278603553772 0.5264220237731934 
vt 0.4999457597732544 0.5264220237731934 
vt 0.5068868398666382 0.5264220237731934 
vt 0.5068868398666382 0.5264220237731934 
vt 0.5138278603553772 0.5264220237731934 
vt 0.5138278603553772 0.498657763004303 
vt 0.5068868398666382 0.498657763004303 
vt 0.4999457597732544 0.5264220237731934 
vt 0.4931131601333618 0.5264220237731934 
vt 0.4931131601333618 0.5264220237731934 
vt 0.4861721098423004 0.5264220237731934 
vt 0.4861721098423004 0.4710020124912262 
vt 0.4999457597732544 0.498657763004303 
vt 0.4931131601333618 0.498657763004303 
vt 0.4861721098423004 0.498657763004303 
vt 0.4861721098423004 0.5264220237731934 
vt 0.479231059551239 0.498657763004303 
vt 0.479231059551239 0.5264220237731934 
vt 0.4722900092601776 0.498657763004303 
vt 0.4722900092601776 0.5264220237731934 
vt 0.4722900092601776 0.5264220237731934 
vt 0.4999457597732544 0.498657763004303 
s on 
f 1/1/1 2/2/2 3/3/3 
f 2/2/2 4/4/4 3/3/3 
f 3/3/3 4/4/4 4/4/4 
f 4/4/4 5/5/5 4/4/4 
f 4/4/4 5/5/5 5/5/5 
f 5/5/5 6/6/6 5/5/5 
f 5/5/5 6/6/6 7/7/7 
f 6/6/6 8/8/8 7/7/7 
f 7/7/7 8/8/8 9/9/9 
f 8/8/8 10/10/10 9/9/9 
f 9/9/9 10/10/10 11/11/11 
f 10/10/10 12/12/12 11/11/11 
f 11/11/11 12/12/12 13/13/13 
f 12/12/12 14/14/14 13/13/13 
f 13/13/13 14/14/14 15/15/15 
f 14/14/14 16/16/16 15/15/15 
f 15/15/15 16/16/16 16/16/16 
f 16/16/16 15/15/15 16/16/16 
f 16/16/16 15/15/15 15/15/15 
f 15/15/15 17/17/17 15/15/15 
f 15/15/15 17/17/17 13/13/13 
f 17/17/17 18/18/18 13/13/13 
f 13/13/13 18/18/18 11/11/11 
f 18/18/18 19/19/19 11/11/11 
f 11/11/11 19/19/19 9/9/9 
f 19/19/19 9/9/9 9/9/9 
f 9/9/9 9/9/9 19/19/19 
f 9/9/9 19/19/19 19/19/19 
f 19/19/19 19/19/19 19/19/19 
f 19/19/19 18/18/18 19/19/19 
f 19/19/19 18/18/18 20/20/20 
f 18/18/18 17/17/17 20/20/20 
f 20/20/20 17/17/17 21/21/21 
f 17/17/17 21/21/21 21/21/21 
f 21/21/21 21/21/21 22/22/22 
f 21/21/21 22/22/22 22/22/22 
f 22/22/22 22/22/22 22/22/22 
f 22/22/22 23/23/23 22/22/22 
f 22/22/22 23/23/23 24/24/24 
f 23/23/23 25/25/25 24/24/24 
f 24/24/24 25/25/25 26/26/26 
f 25/25/25 27/27/27 26/26/26 
f 26/26/26 27/27/27 28/28/28 
f 27/27/27 28/28/28 28/28/28 
f 28/28/28 28/28/28 27/27/27 
f 28/28/28 27/27/27 27/27/27 
f 27/27/27 27/27/27 27/27/27 
f 27/27/27 25/25/25 27/27/27 
f 27/27/27 25/25/25 29/29/29 
f 25/25/25 23/23/23 29/29/29 
f 29/29/29 23/23/23 30/30/30 
f 23/23/23 30/30/30 30/30/30 
f 30/30/30 30/30/30 30/30/30 
f 30/30/30 31/31/31 30/30/30 
f 30/30/30 31/31/31 29/29/29 
f 31/31/31 32/32/32 29/29/29 
f 29/29/29 32/32/32 33/33/33 
f 32/32/32 34/34/34 33/33/33 
f 33/33/33 34/34/34 35/35/35 
f 34/34/34 14/14/14 35/35/35 
f 35/35/35 14/14/14 36/36/36 
f 14/14/14 12/12/12 36/36/36 
f 36/36/36 12/12/12 37/37/37 
f 12/12/12 10/10/10 37/37/37 
f 37/37/37 10/10/10 8/8/8 
f 10/10/10 8/8/8 8/8/8 
f 8/8/8 8/8/8 35/35/35 
f 8/8/8 35/35/35 35/35/35 
f 35/35/35 35/35/35 35/35/35 
f 35/35/35 36/36/36 35/35/35 
f 35/35/35 36/36/36 38/38/38 
f 36/36/36 39/39/39 38/38/38 
f 38/38/38 39/39/39 40/40/40 
f 39/39/39 37/37/37 40/40/40 
f 40/40/40 37/37/37 41/41/41 
f 37/37/37 8/8/8 41/41/41 
f 41/41/41 8/8/8 6/6/6 
f 8/8/8 6/6/6 6/6/6 
f 6/6/6 6/6/6 6/6/6 
f 6/6/6 42/42/42 6/6/6 
f 6/6/6 42/42/42 41/41/41 
f 42/42/42 43/43/43 41/41/41 
f 41/41/41 43/43/43 40/40/40 
f 43/43/43 44/44/44 40/40/40 
f 40/40/40 44/44/44 38/38/38 
f 44/44/44 45/45/45 38/38/38 
f 38/38/38 45/45/45 46/46/46 
f 45/45/45 47/47/47 46/46/46 
f 46/46/46 47/47/47 33/33/33 
f 47/47/47 48/48/48 33/33/33 
f 33/33/33 48/48/48 29/29/29 
f 48/48/48 27/27/27 29/29/29 
f 29/29/29 27/27/27 27/27/27 
f 27/27/27 38/38/38 27/27/27 
f 27/27/27 38/38/38 38/38/38 
f 38/38/38 46/46/46 38/38/38 
f 38/38/38 46/46/46 35/35/35 
f 46/46/46 33/33/33 35/35/35 
f 35/35/35 33/33/33 33/33/33 
f 33/33/33 43/43/43 33/33/33 
f 33/33/33 43/43/43 43/43/43 
f 43/43/43 49/49/49 43/43/43 
f 43/43/43 49/49/49 44/44/44 
f 49/49/49 45/45/45 44/44/44 
f 44/44/44 45/45/45 45/45/45 
f 45/45/45 49/49/49 45/45/45 
f 45/45/45 49/49/49 49/49/49 
f 49/49/49 50/50/50 49/49/49 
f 49/49/49 50/50/50 45/45/45 
f 50/50/50 51/51/51 45/45/45 
f 45/45/45 51/51/51 52/52/52 
f 51/51/51 53/53/53 52/52/52 
f 52/52/52 53/53/53 54/54/54 
f 53/53/53 55/55/55 54/54/54 
f 54/54/54 55/55/55 56/56/56 
f 55/55/55 56/56/56 56/56/56 
f 56/56/56 56/56/56 45/45/45 
f 56/56/56 45/45/45 45/45/45 
f 45/45/45 45/45/45 45/45/45 
f 45/45/45 52/52/52 45/45/45 
f 45/45/45 52/52/52 47/47/47 
f 52/52/52 54/54/54 47/47/47 
f 47/47/47 54/54/54 28/28/28 
f 54/54/54 57/57/57 28/28/28 
f 28/28/28 57/57/57 26/26/26 
f 57/57/57 26/26/26 26/26/26 
f 26/26/26 26/26/26 31/31/31 
f 26/26/26 31/31/31 31/31/31 
f 31/31/31 31/31/31 31/31/31 
f 31/31/31 58/58/58 31/31/31 
f 31/31/31 58/58/58 32/32/32 
f 58/58/58 34/34/34 32/32/32 
f 32/32/32 34/34/34 34/34/34 
f 34/34/34 58/58/58 34/34/34 
f 34/34/34 58/58/58 14/14/14 
f 58/58/58 16/16/16 14/14/14 
f 37/37/37 39/39/39 36/36/36 
f 57/57/57 54/54/54 56/56/56 

